<?xml version="1.0" encoding="UTF-8"?>
<svg width="172" height="34" viewBox="0 0 172 34" fill="none" xmlns="http://www.w3.org/2000/svg">
<path d="M11.7483 33.6196C9.3981 33.5981 7.10788 32.881 5.17215 31.5594C4.85208 32.9582 3.44937 33.8346 2.03902 33.5172C0.864575 33.2541 0.0242285 32.2297 0 31.0358V2.61667C0 1.17238 1.18082 0.00126594 2.63708 0.00126594C4.09334 0.00126594 5.27416 1.17238 5.27416 2.61667V11.653C7.17929 10.344 9.44019 9.63957 11.7572 9.63198C18.2989 9.63198 23.5195 15.1018 23.5195 21.6795C23.5195 28.1675 18.2912 33.6259 11.7572 33.6259L11.7483 33.6196ZM16.3045 16.8269C15.1237 15.5774 13.4761 14.8666 11.7495 14.8603C10.0242 14.8577 8.37541 15.571 7.20351 16.8269C4.61999 19.5131 4.61999 23.7385 7.20351 26.4235C8.37413 27.6831 10.0229 28.3989 11.7495 28.3977C13.4774 28.3901 15.125 27.6755 16.3045 26.4235C18.8804 23.7347 18.8804 19.5156 16.3045 16.8269ZM29.7462 33.6221C28.3116 33.6335 27.1385 32.489 27.127 31.0662C27.127 31.0573 27.127 31.0472 27.127 31.0384V12.3081C27.0862 10.8904 28.2109 9.70913 29.6391 9.66739C29.6748 9.66613 29.7105 9.66613 29.7449 9.66613C31.242 9.66613 32.3565 10.774 32.3565 12.3068V31.0346C32.3756 32.4422 31.242 33.5981 29.8227 33.6183C29.7972 33.6183 29.7704 33.6183 29.7449 33.6183V33.6221H29.7462ZM56.1145 33.6221C54.8712 33.6361 53.7924 32.771 53.545 31.5619C51.6054 32.8835 49.3126 33.6006 46.9599 33.6221C40.4182 33.6221 35.2027 28.1536 35.2027 21.6758C35.2027 15.093 40.4246 9.62819 46.9599 9.62819C49.2782 9.63451 51.5404 10.3389 53.4455 11.6492V2.61793C53.4455 1.17238 54.6276 0 56.0851 0C57.5427 0 58.7248 1.17238 58.7248 2.61793V31.0371C58.7107 32.4637 57.544 33.6146 56.1055 33.6209L56.1145 33.6221ZM51.5213 16.8269C49.1902 14.3316 45.2627 14.1824 42.7467 16.4943C42.6307 16.6005 42.5185 16.7118 42.4113 16.8269C39.8278 19.5131 39.8278 23.7385 42.4113 26.4235C44.7309 28.9187 48.6495 29.0768 51.1655 26.7776C51.2892 26.665 51.4078 26.5461 51.5225 26.4235C54.0984 23.7347 54.0984 19.5156 51.5213 16.8269ZM76.2394 14.7085C75.1963 14.6819 74.1736 15.0044 73.3358 15.6216C72.4292 16.2186 71.6692 17.0103 71.1119 17.9386C69.9438 19.4726 69.3662 21.3027 69.1239 21.9742V31.0965C69.0844 32.5206 67.8997 33.65 66.4626 33.6335C65.0484 33.6335 63.8995 32.4991 63.8931 31.0965V12.1677C63.9033 10.7765 65.0484 9.65728 66.4511 9.66739C66.4549 9.66739 66.4588 9.66739 66.4626 9.66739C67.9137 9.66739 69.1239 10.7753 69.1239 12.1677V12.5041C69.4274 12.1487 69.7666 11.825 70.1377 11.5404C71.9319 10.3137 74.0601 9.66107 76.2394 9.66866C77.6281 9.63957 78.7783 10.7323 78.8089 12.1095C78.8089 12.1285 78.8089 12.1487 78.8089 12.1677C78.8089 13.5753 77.6587 14.7161 76.2394 14.7161V14.7085ZM97.7212 30.124C95.686 32.4447 92.7365 33.7739 89.6352 33.7714C86.2942 33.7714 83.4939 32.3815 81.3159 30.124C79.2323 28.0132 77.9724 25.0386 77.9724 21.677C77.9724 18.4103 79.231 15.5811 81.3159 13.2731C83.4927 11.0206 86.2942 9.62439 89.6352 9.62439C92.7352 9.62439 95.6834 10.9549 97.7212 13.2731C99.9119 15.528 101.128 18.5443 101.108 21.677C101.108 25.0373 99.8979 28.0132 97.7212 30.124ZM94.0946 16.6852C92.8819 15.6267 91.3338 14.8641 89.6352 14.8641C87.9137 14.8881 86.2611 15.5356 84.9885 16.6852C83.8255 18.0916 83.207 19.8622 83.2453 21.6808C83.1994 23.5311 83.8166 25.3371 84.9885 26.7776C86.242 27.9512 87.9112 28.5899 89.6352 28.5545C91.2993 28.5646 92.8997 27.9259 94.0946 26.7776C95.3532 25.3775 96.0277 23.5551 95.9818 21.6808C96.0201 19.8381 95.3442 18.0498 94.0946 16.6852ZM124.093 30.124C122.058 32.4434 119.109 33.7739 116.007 33.7714C112.664 33.7714 109.858 32.3815 107.677 30.124C105.599 28.0132 104.338 25.0386 104.338 21.677C104.338 18.4103 105.599 15.5811 107.677 13.2731C109.858 11.0206 112.664 9.62439 116.007 9.62439C119.107 9.62692 122.054 10.9574 124.093 13.2731C126.285 15.528 127.502 18.5443 127.483 21.677C127.483 25.0373 126.271 28.0132 124.093 30.124ZM120.456 16.6852C119.255 15.6267 117.702 14.8641 116.018 14.8641C114.295 14.8843 112.64 15.5318 111.368 16.6852C110.256 17.9803 109.624 19.6978 109.624 21.6808C109.624 23.7423 110.256 25.4231 111.368 26.7776C112.622 27.9537 114.292 28.5924 116.018 28.5545C117.675 28.5633 119.269 27.9247 120.456 26.7776C121.718 25.3788 122.393 23.5564 122.349 21.6808C122.385 19.8369 121.707 18.0486 120.456 16.6852ZM163.619 33.6272C162.2 33.6221 161.042 32.4978 161.007 31.0902V19.6978C161.02 16.9989 158.837 14.7945 156.116 14.7604C153.408 14.7566 151.183 16.8775 151.081 19.5612V31.0839C151.075 32.4864 149.926 33.6209 148.512 33.6209C147.156 33.6209 145.895 32.4738 145.895 31.0839V19.5612C145.857 16.8572 143.616 14.6959 140.89 14.7338C138.164 14.7717 135.984 16.9938 136.023 19.6978V31.0826C136.023 31.1775 135.981 31.3141 135.981 31.4165V31.5607C135.927 31.6555 135.927 31.758 135.829 31.8528V32.0843C135.365 32.9936 134.439 33.5817 133.411 33.6183C133.215 33.6183 133.065 33.5766 132.925 33.5766C131.757 33.287 130.844 32.3296 130.844 31.0814V12.2132C130.82 10.8056 131.95 9.64589 133.369 9.6206C133.384 9.6206 133.398 9.6206 133.414 9.6206C134.412 9.58898 135.33 10.1581 135.738 11.0624C139.9 8.58228 145.25 9.36386 148.514 12.9303C150.301 10.8752 153.069 9.62186 156.109 9.62186C161.693 9.6421 166.204 14.1482 166.183 19.6864C166.183 19.6902 166.183 19.694 166.183 19.6978V31.0826C166.177 32.4852 165.028 33.6196 163.614 33.6196L163.619 33.6272Z" fill="#FAA91E"/>
<path d="M168.705 8.30029C169.254 8.30282 169.794 8.4432 170.275 8.70626C170.771 8.97438 171.18 9.37656 171.457 9.86473C172.025 10.8398 172.025 12.0413 171.457 13.0164C171.182 13.502 170.778 13.9029 170.289 14.1748C169.307 14.7313 168.103 14.7313 167.121 14.1748C166.629 13.9055 166.225 13.5045 165.953 13.0164C165.384 12.0413 165.384 10.8398 165.953 9.86473C166.226 9.37782 166.63 8.97691 167.121 8.70626C167.606 8.44067 168.151 8.30156 168.705 8.30029ZM168.705 8.92379C168.264 8.92506 167.831 9.03635 167.446 9.24755C167.052 9.46129 166.727 9.78379 166.511 10.1746C166.284 10.5616 166.166 11.0017 166.166 11.4494C166.168 11.8895 166.283 12.322 166.5 12.7053C166.721 13.1011 167.05 13.4274 167.449 13.6462C168.235 14.0901 169.201 14.0901 169.988 13.6462C170.382 13.4261 170.706 13.0998 170.922 12.7053C171.144 12.3233 171.26 11.8908 171.259 11.4494C171.258 11.0017 171.138 10.5628 170.913 10.1746C170.695 9.77999 170.366 9.4575 169.965 9.24755C169.578 9.03635 169.146 8.92506 168.705 8.92379ZM169.476 11.9211L170.147 12.1526C170.063 12.4675 169.88 12.747 169.624 12.9493C169.372 13.134 169.064 13.2314 168.751 13.225C168.312 13.2428 167.887 13.0745 167.583 12.7622C167.27 12.4144 167.111 11.9578 167.139 11.4924C167.132 11.1661 167.2 10.8423 167.338 10.5451C167.458 10.2821 167.66 10.0633 167.914 9.92164C168.172 9.78252 168.46 9.71297 168.753 9.71802C169.054 9.70411 169.353 9.78505 169.604 9.94946C169.858 10.1404 170.045 10.406 170.139 10.707L169.469 10.8664C169.409 10.6956 169.303 10.5439 169.165 10.4263C169.039 10.3352 168.885 10.2884 168.728 10.2947C168.488 10.2897 168.26 10.3934 168.107 10.5755C167.79 11.1231 167.79 11.7959 168.107 12.3436C168.242 12.5219 168.452 12.6268 168.677 12.6281C168.851 12.6294 169.021 12.5712 169.157 12.4637C169.316 12.3195 169.428 12.1311 169.476 11.9211Z" fill="#FAA91E"/>
</svg>
